<svg xmlns="http://www.w3.org/2000/svg" width="593" height="432" viewBox="0 0 593 432"><defs><style>.a,.d{fill:none;}.a{stroke:#f4f4f4;stroke-width:80px;stroke-dasharray:2.5;}.b{fill:#f4f4f4;}.c{stroke:none;}</style></defs><g transform="translate(-124 -164)"><g class="a" transform="translate(124 164)"><circle class="c" cx="216" cy="216" r="216"/><circle class="d" cx="216" cy="216" r="176"/></g><g transform="translate(-17)"><circle class="b" cx="2.5" cy="2.5" r="2.5" transform="translate(550 186)"/><circle class="b" cx="2.5" cy="2.5" r="2.5" transform="translate(562 186)"/><circle class="b" cx="2.5" cy="2.5" r="2.5" transform="translate(574 186)"/><circle class="b" cx="2.5" cy="2.5" r="2.5" transform="translate(586 186)"/><circle class="b" cx="2.5" cy="2.5" r="2.5" transform="translate(598 186)"/><circle class="b" cx="2.5" cy="2.5" r="2.5" transform="translate(610 186)"/><circle class="b" cx="2.5" cy="2.5" r="2.5" transform="translate(622 186)"/><circle class="b" cx="2.5" cy="2.5" r="2.5" transform="translate(634 186)"/><circle class="b" cx="2.5" cy="2.5" r="2.5" transform="translate(550 196)"/><circle class="b" cx="2.5" cy="2.5" r="2.5" transform="translate(562 196)"/><circle class="b" cx="2.5" cy="2.5" r="2.5" transform="translate(574 196)"/><circle class="b" cx="2.5" cy="2.5" r="2.5" transform="translate(586 196)"/><circle class="b" cx="2.5" cy="2.5" r="2.5" transform="translate(598 196)"/><circle class="b" cx="2.5" cy="2.5" r="2.5" transform="translate(610 196)"/><circle class="b" cx="2.5" cy="2.5" r="2.5" transform="translate(622 196)"/><circle class="b" cx="2.5" cy="2.5" r="2.5" transform="translate(634 196)"/><circle class="b" cx="2.5" cy="2.5" r="2.5" transform="translate(550 206)"/><circle class="b" cx="2.5" cy="2.5" r="2.5" transform="translate(562 206)"/><circle class="b" cx="2.5" cy="2.5" r="2.5" transform="translate(574 206)"/><circle class="b" cx="2.5" cy="2.5" r="2.5" transform="translate(586 206)"/><circle class="b" cx="2.5" cy="2.5" r="2.5" transform="translate(598 206)"/><circle class="b" cx="2.5" cy="2.5" r="2.5" transform="translate(610 206)"/><circle class="b" cx="2.5" cy="2.5" r="2.5" transform="translate(622 206)"/><circle class="b" cx="2.5" cy="2.5" r="2.5" transform="translate(634 206)"/><circle class="b" cx="2.5" cy="2.5" r="2.5" transform="translate(550 216)"/><circle class="b" cx="2.5" cy="2.5" r="2.5" transform="translate(562 216)"/><circle class="b" cx="2.5" cy="2.5" r="2.5" transform="translate(574 216)"/><circle class="b" cx="2.5" cy="2.5" r="2.5" transform="translate(586 216)"/><circle class="b" cx="2.5" cy="2.5" r="2.5" transform="translate(598 216)"/><circle class="b" cx="2.5" cy="2.5" r="2.5" transform="translate(610 216)"/><circle class="b" cx="2.5" cy="2.5" r="2.5" transform="translate(622 216)"/><circle class="b" cx="2.5" cy="2.5" r="2.5" transform="translate(634 216)"/><circle class="b" cx="2.5" cy="2.5" r="2.5" transform="translate(550 226)"/><circle class="b" cx="2.5" cy="2.5" r="2.5" transform="translate(562 226)"/><circle class="b" cx="2.5" cy="2.5" r="2.5" transform="translate(574 226)"/><circle class="b" cx="2.5" cy="2.5" r="2.5" transform="translate(586 226)"/><circle class="b" cx="2.5" cy="2.5" r="2.5" transform="translate(598 226)"/><circle class="b" cx="2.5" cy="2.5" r="2.5" transform="translate(610 226)"/><circle class="b" cx="2.5" cy="2.5" r="2.5" transform="translate(622 226)"/><circle class="b" cx="2.5" cy="2.5" r="2.5" transform="translate(634 226)"/><circle class="b" cx="2.5" cy="2.5" r="2.5" transform="translate(550 236)"/><circle class="b" cx="2.5" cy="2.5" r="2.5" transform="translate(562 236)"/><circle class="b" cx="2.5" cy="2.5" r="2.5" transform="translate(574 236)"/><circle class="b" cx="2.5" cy="2.5" r="2.5" transform="translate(586 236)"/><circle class="b" cx="2.5" cy="2.5" r="2.5" transform="translate(598 236)"/><circle class="b" cx="2.5" cy="2.5" r="2.5" transform="translate(610 236)"/><circle class="b" cx="2.5" cy="2.5" r="2.5" transform="translate(622 236)"/><circle class="b" cx="2.5" cy="2.5" r="2.5" transform="translate(634 236)"/><circle class="b" cx="2.5" cy="2.5" r="2.5" transform="translate(550 246)"/><circle class="b" cx="2.5" cy="2.5" r="2.5" transform="translate(562 246)"/><circle class="b" cx="2.5" cy="2.5" r="2.5" transform="translate(574 246)"/><circle class="b" cx="2.5" cy="2.5" r="2.5" transform="translate(586 246)"/><circle class="b" cx="2.5" cy="2.5" r="2.5" transform="translate(598 246)"/><circle class="b" cx="2.5" cy="2.5" r="2.5" transform="translate(610 246)"/><circle class="b" cx="2.5" cy="2.5" r="2.5" transform="translate(622 246)"/><circle class="b" cx="2.5" cy="2.5" r="2.5" transform="translate(634 246)"/><circle class="b" cx="2.5" cy="2.5" r="2.5" transform="translate(550 256)"/><circle class="b" cx="2.5" cy="2.5" r="2.5" transform="translate(562 256)"/><circle class="b" cx="2.5" cy="2.5" r="2.5" transform="translate(574 256)"/><circle class="b" cx="2.5" cy="2.5" r="2.5" transform="translate(586 256)"/><circle class="b" cx="2.5" cy="2.5" r="2.5" transform="translate(598 256)"/><circle class="b" cx="2.5" cy="2.5" r="2.5" transform="translate(610 256)"/><circle class="b" cx="2.5" cy="2.5" r="2.5" transform="translate(622 256)"/><circle class="b" cx="2.5" cy="2.5" r="2.5" transform="translate(634 256)"/></g><g transform="translate(78)"><circle class="b" cx="2.5" cy="2.5" r="2.5" transform="translate(550 186)"/><circle class="b" cx="2.5" cy="2.5" r="2.5" transform="translate(562 186)"/><circle class="b" cx="2.5" cy="2.5" r="2.5" transform="translate(574 186)"/><circle class="b" cx="2.5" cy="2.5" r="2.5" transform="translate(586 186)"/><circle class="b" cx="2.5" cy="2.5" r="2.5" transform="translate(598 186)"/><circle class="b" cx="2.5" cy="2.5" r="2.5" transform="translate(610 186)"/><circle class="b" cx="2.5" cy="2.5" r="2.5" transform="translate(622 186)"/><circle class="b" cx="2.5" cy="2.5" r="2.5" transform="translate(634 186)"/><circle class="b" cx="2.5" cy="2.5" r="2.5" transform="translate(550 196)"/><circle class="b" cx="2.5" cy="2.5" r="2.5" transform="translate(562 196)"/><circle class="b" cx="2.5" cy="2.5" r="2.5" transform="translate(574 196)"/><circle class="b" cx="2.5" cy="2.5" r="2.5" transform="translate(586 196)"/><circle class="b" cx="2.5" cy="2.5" r="2.5" transform="translate(598 196)"/><circle class="b" cx="2.5" cy="2.5" r="2.5" transform="translate(610 196)"/><circle class="b" cx="2.5" cy="2.5" r="2.5" transform="translate(622 196)"/><circle class="b" cx="2.5" cy="2.5" r="2.5" transform="translate(634 196)"/><circle class="b" cx="2.5" cy="2.5" r="2.5" transform="translate(550 206)"/><circle class="b" cx="2.5" cy="2.5" r="2.5" transform="translate(562 206)"/><circle class="b" cx="2.5" cy="2.5" r="2.5" transform="translate(574 206)"/><circle class="b" cx="2.5" cy="2.5" r="2.5" transform="translate(586 206)"/><circle class="b" cx="2.5" cy="2.5" r="2.5" transform="translate(598 206)"/><circle class="b" cx="2.5" cy="2.5" r="2.5" transform="translate(610 206)"/><circle class="b" cx="2.5" cy="2.5" r="2.5" transform="translate(622 206)"/><circle class="b" cx="2.5" cy="2.5" r="2.5" transform="translate(634 206)"/><circle class="b" cx="2.5" cy="2.5" r="2.5" transform="translate(550 216)"/><circle class="b" cx="2.5" cy="2.5" r="2.5" transform="translate(562 216)"/><circle class="b" cx="2.5" cy="2.5" r="2.5" transform="translate(574 216)"/><circle class="b" cx="2.5" cy="2.5" r="2.5" transform="translate(586 216)"/><circle class="b" cx="2.5" cy="2.5" r="2.5" transform="translate(598 216)"/><circle class="b" cx="2.5" cy="2.5" r="2.5" transform="translate(610 216)"/><circle class="b" cx="2.5" cy="2.5" r="2.5" transform="translate(622 216)"/><circle class="b" cx="2.5" cy="2.5" r="2.5" transform="translate(634 216)"/><circle class="b" cx="2.5" cy="2.5" r="2.5" transform="translate(550 226)"/><circle class="b" cx="2.5" cy="2.5" r="2.5" transform="translate(562 226)"/><circle class="b" cx="2.5" cy="2.5" r="2.5" transform="translate(574 226)"/><circle class="b" cx="2.5" cy="2.5" r="2.5" transform="translate(586 226)"/><circle class="b" cx="2.5" cy="2.5" r="2.5" transform="translate(598 226)"/><circle class="b" cx="2.5" cy="2.5" r="2.5" transform="translate(610 226)"/><circle class="b" cx="2.5" cy="2.5" r="2.5" transform="translate(622 226)"/><circle class="b" cx="2.5" cy="2.5" r="2.5" transform="translate(634 226)"/><circle class="b" cx="2.5" cy="2.5" r="2.5" transform="translate(550 236)"/><circle class="b" cx="2.5" cy="2.5" r="2.5" transform="translate(562 236)"/><circle class="b" cx="2.5" cy="2.5" r="2.5" transform="translate(574 236)"/><circle class="b" cx="2.5" cy="2.5" r="2.5" transform="translate(586 236)"/><circle class="b" cx="2.5" cy="2.5" r="2.5" transform="translate(598 236)"/><circle class="b" cx="2.5" cy="2.5" r="2.5" transform="translate(610 236)"/><circle class="b" cx="2.5" cy="2.5" r="2.5" transform="translate(622 236)"/><circle class="b" cx="2.5" cy="2.5" r="2.5" transform="translate(634 236)"/><circle class="b" cx="2.5" cy="2.5" r="2.5" transform="translate(550 246)"/><circle class="b" cx="2.5" cy="2.5" r="2.5" transform="translate(562 246)"/><circle class="b" cx="2.5" cy="2.5" r="2.5" transform="translate(574 246)"/><circle class="b" cx="2.5" cy="2.5" r="2.5" transform="translate(586 246)"/><circle class="b" cx="2.5" cy="2.5" r="2.5" transform="translate(598 246)"/><circle class="b" cx="2.5" cy="2.5" r="2.5" transform="translate(610 246)"/><circle class="b" cx="2.5" cy="2.5" r="2.5" transform="translate(622 246)"/><circle class="b" cx="2.5" cy="2.5" r="2.5" transform="translate(634 246)"/><circle class="b" cx="2.5" cy="2.5" r="2.5" transform="translate(550 256)"/><circle class="b" cx="2.5" cy="2.5" r="2.5" transform="translate(562 256)"/><circle class="b" cx="2.5" cy="2.5" r="2.5" transform="translate(574 256)"/><circle class="b" cx="2.5" cy="2.5" r="2.5" transform="translate(586 256)"/><circle class="b" cx="2.5" cy="2.5" r="2.5" transform="translate(598 256)"/><circle class="b" cx="2.5" cy="2.5" r="2.5" transform="translate(610 256)"/><circle class="b" cx="2.5" cy="2.5" r="2.5" transform="translate(622 256)"/><circle class="b" cx="2.5" cy="2.5" r="2.5" transform="translate(634 256)"/></g></g></svg>