<svg width="64" height="64" viewBox="0 0 64 64" fill="none" xmlns="http://www.w3.org/2000/svg">
<path d="M27.2 12.8H36.8C36.8 11.5269 36.2943 10.3061 35.3941 9.40588C34.4939 8.5057 33.273 7.99999 32 7.99999C30.727 7.99999 29.5061 8.5057 28.6059 9.40588C27.7057 10.3061 27.2 11.5269 27.2 12.8V12.8ZM24 12.8C24 10.6783 24.8428 8.64342 26.3431 7.14313C27.8434 5.64284 29.8783 4.79999 32 4.79999C34.1217 4.79999 36.1566 5.64284 37.6568 7.14313C39.1571 8.64342 40 10.6783 40 12.8H56C56.4243 12.8 56.8313 12.9686 57.1314 13.2686C57.4314 13.5687 57.6 13.9756 57.6 14.4C57.6 14.8243 57.4314 15.2313 57.1314 15.5314C56.8313 15.8314 56.4243 16 56 16H52.6272L48.8064 49.1008C48.5363 51.4406 47.4155 53.5995 45.6572 55.1666C43.8988 56.7338 41.6257 57.5998 39.2704 57.6H24.7296C22.3742 57.5998 20.1012 56.7338 18.3428 55.1666C16.5845 53.5995 15.4637 51.4406 15.1936 49.1008L11.3728 16H7.99999C7.57565 16 7.16868 15.8314 6.86862 15.5314C6.56857 15.2313 6.39999 14.8243 6.39999 14.4C6.39999 13.9756 6.56857 13.5687 6.86862 13.2686C7.16868 12.9686 7.57565 12.8 7.99999 12.8H24ZM18.3712 48.736C18.5518 50.2957 19.2993 51.7345 20.4717 52.7789C21.6441 53.8232 23.1595 54.4002 24.7296 54.4H39.2704C40.8405 54.4002 42.3559 53.8232 43.5283 52.7789C44.7006 51.7345 45.4482 50.2957 45.6288 48.736L49.4048 16H14.5952L18.3712 48.736ZM27.2 24C27.6243 24 28.0313 24.1686 28.3314 24.4686C28.6314 24.7687 28.8 25.1756 28.8 25.6V44.8C28.8 45.2243 28.6314 45.6313 28.3314 45.9314C28.0313 46.2314 27.6243 46.4 27.2 46.4C26.7756 46.4 26.3687 46.2314 26.0686 45.9314C25.7686 45.6313 25.6 45.2243 25.6 44.8V25.6C25.6 25.1756 25.7686 24.7687 26.0686 24.4686C26.3687 24.1686 26.7756 24 27.2 24ZM38.4 25.6C38.4 25.1756 38.2314 24.7687 37.9314 24.4686C37.6313 24.1686 37.2243 24 36.8 24C36.3756 24 35.9687 24.1686 35.6686 24.4686C35.3686 24.7687 35.2 25.1756 35.2 25.6V44.8C35.2 45.2243 35.3686 45.6313 35.6686 45.9314C35.9687 46.2314 36.3756 46.4 36.8 46.4C37.2243 46.4 37.6313 46.2314 37.9314 45.9314C38.2314 45.6313 38.4 45.2243 38.4 44.8V25.6Z" fill="#ACACAC"/>
</svg>
