<svg width="49" height="49" viewBox="0 0 49 49" fill="none" xmlns="http://www.w3.org/2000/svg">
<path d="M2.67727 48.5848C2.3073 48.5841 1.94151 48.5065 1.60316 48.3568C1.26481 48.2072 0.9613 47.9887 0.711938 47.7154C0.458068 47.4444 0.264347 47.1228 0.143481 46.7717C0.0226148 46.4206 -0.0226667 46.0479 0.0106049 45.6781L0.663938 38.4941L30.8453 8.32343L40.2773 17.7528L10.1039 47.9208L2.91994 48.5741C2.83927 48.5815 2.75828 48.5851 2.67727 48.5848ZM42.1599 15.8674L32.7306 6.4381L38.3866 0.782098C38.6343 0.534161 38.9284 0.33747 39.2521 0.203272C39.5758 0.0690738 39.9228 0 40.2733 0C40.6237 0 40.9707 0.0690738 41.2944 0.203272C41.6182 0.33747 41.9123 0.534161 42.1599 0.782098L47.8159 6.4381C48.0639 6.68576 48.2606 6.97986 48.3948 7.30359C48.529 7.62732 48.598 7.97432 48.598 8.32477C48.598 8.67521 48.529 9.02221 48.3948 9.34594C48.2606 9.66967 48.0639 9.96377 47.8159 10.2114L42.1626 15.8648L42.1599 15.8674Z" fill="#D90B2C"/>
</svg>
