<svg width="64" height="64" viewBox="0 0 64 64" fill="none" xmlns="http://www.w3.org/2000/svg">
<path d="M11.7867 54.8773C11.4167 54.8767 11.0509 54.799 10.7126 54.6494C10.3742 54.4997 10.0707 54.2813 9.82134 54.008C9.56747 53.737 9.37375 53.4154 9.25288 53.0643C9.13201 52.7132 9.08673 52.3405 9.12 51.9706L9.77334 44.7866L39.9547 14.616L49.3867 24.0453L19.2133 54.2133L12.0293 54.8666C11.9487 54.8741 11.8677 54.8776 11.7867 54.8773V54.8773ZM51.2693 22.16L41.84 12.7306L47.496 7.07464C47.7437 6.8267 48.0378 6.63001 48.3615 6.49581C48.6852 6.36162 49.0322 6.29254 49.3827 6.29254C49.7331 6.29254 50.0801 6.36162 50.4038 6.49581C50.7276 6.63001 51.0217 6.8267 51.2693 7.07464L56.9253 12.7306C57.1733 12.9783 57.37 13.2724 57.5042 13.5961C57.6384 13.9199 57.7074 14.2669 57.7074 14.6173C57.7074 14.9677 57.6384 15.3148 57.5042 15.6385C57.37 15.9622 57.1733 16.2563 56.9253 16.504L51.272 22.1573L51.2693 22.16V22.16Z" fill="#ACACAC"/>
</svg>
